<svg xmlns="http://www.w3.org/2000/svg" xmlns:xlink="http://www.w3.org/1999/xlink" width="500" zoomAndPan="magnify" viewBox="0 0 375 374.999991" height="500" preserveAspectRatio="xMidYMid meet" version="1.0"><defs><g/><clipPath id="d7ad944069"><path d="M 26.175781 23 L 344.175781 23 L 344.175781 352 L 26.175781 352 Z M 26.175781 23 " clip-rule="nonzero"/></clipPath></defs><g clip-path="url(#d7ad944069)"><path fill="#221e1e" d="M 145.308594 28.328125 C 188.257812 17.53125 231.636719 24.773438 267.316406 45.371094 C 303.679688 66.367188 332.039062 101.234375 343.765625 145.003906 C 344.023438 145.96875 344.269531 146.933594 344.511719 147.902344 L 342.003906 148.777344 C 341.746094 147.746094 341.484375 146.714844 341.207031 145.683594 C 329.671875 102.621094 301.769531 68.316406 265.992188 47.65625 C 230.402344 27.109375 187.011719 20.070312 144.171875 31.351562 C 144.574219 30.355469 144.949219 29.347656 145.308594 28.328125 Z M 28.683594 226.722656 C 28.894531 227.566406 29.109375 228.40625 29.335938 229.25 C 40.875 272.308594 68.773438 306.617188 104.554688 327.277344 C 140.3125 347.925781 183.945312 354.933594 226.988281 343.421875 C 226.570312 344.421875 226.179688 345.4375 225.808594 346.460938 C 182.671875 357.46875 139.0625 350.246094 103.230469 329.5625 C 66.863281 308.566406 38.507812 273.699219 26.785156 229.929688 C 26.578125 229.152344 26.371094 228.375 26.175781 227.597656 Z M 28.683594 226.722656 " fill-opacity="1" fill-rule="evenodd"/></g><g fill="#000000" fill-opacity="1"><g transform="translate(2.326542, 192.903019)"><g><path d="M 19.875 -24.5 L 19.875 -19.828125 L 7.984375 -19.828125 L 7.984375 -14.609375 L 18.5 -14.609375 L 18.5 -9.953125 L 7.984375 -9.953125 L 7.984375 -4.65625 L 20.328125 -4.65625 L 20.328125 0 L 3.15625 0 L 3.15625 -24.5 Z M 19.875 -24.5 "/></g></g></g><g fill="#000000" fill-opacity="1"><g transform="translate(51.111306, 192.903019)"><g><path d="M 10.578125 -24.5 C 13.578125 -24.5 15.894531 -23.757812 17.53125 -22.28125 C 19.175781 -20.800781 20 -18.785156 20 -16.234375 C 20 -14.773438 19.71875 -13.40625 19.15625 -12.125 C 18.59375 -10.851562 17.671875 -9.804688 16.390625 -8.984375 C 15.117188 -8.160156 13.472656 -7.75 11.453125 -7.75 L 7.984375 -7.75 L 7.984375 0 L 3.15625 0 L 3.15625 -24.5 Z M 11.421875 -12.453125 C 12.328125 -12.453125 13.054688 -12.65625 13.609375 -13.0625 C 14.160156 -13.46875 14.554688 -13.945312 14.796875 -14.5 C 15.046875 -15.0625 15.171875 -15.597656 15.171875 -16.109375 C 15.171875 -16.972656 14.914062 -17.804688 14.40625 -18.609375 C 13.894531 -19.421875 12.910156 -19.828125 11.453125 -19.828125 L 7.984375 -19.828125 L 7.984375 -12.453125 Z M 11.421875 -12.453125 "/></g></g></g><g fill="#000000" fill-opacity="1"><g transform="translate(98.897974, 192.903019)"><g><path d="M 1.671875 -12.21875 C 1.671875 -14.4375 2.226562 -16.507812 3.34375 -18.4375 C 4.46875 -20.363281 5.988281 -21.898438 7.90625 -23.046875 C 9.820312 -24.191406 11.898438 -24.765625 14.140625 -24.765625 C 16.378906 -24.765625 18.457031 -24.191406 20.375 -23.046875 C 22.300781 -21.898438 23.832031 -20.363281 24.96875 -18.4375 C 26.113281 -16.507812 26.6875 -14.4375 26.6875 -12.21875 C 26.6875 -9.945312 26.113281 -7.859375 24.96875 -5.953125 C 23.832031 -4.046875 22.300781 -2.53125 20.375 -1.40625 C 18.457031 -0.289062 16.378906 0.265625 14.140625 0.265625 C 11.878906 0.265625 9.796875 -0.289062 7.890625 -1.40625 C 5.984375 -2.53125 4.46875 -4.046875 3.34375 -5.953125 C 2.226562 -7.859375 1.671875 -9.945312 1.671875 -12.21875 Z M 6.65625 -12.21875 C 6.65625 -10.789062 6.992188 -9.476562 7.671875 -8.28125 C 8.347656 -7.082031 9.269531 -6.132812 10.4375 -5.4375 C 11.601562 -4.738281 12.894531 -4.390625 14.3125 -4.390625 C 15.6875 -4.390625 16.9375 -4.738281 18.0625 -5.4375 C 19.195312 -6.132812 20.085938 -7.078125 20.734375 -8.265625 C 21.378906 -9.453125 21.703125 -10.769531 21.703125 -12.21875 C 21.703125 -13.675781 21.367188 -15.003906 20.703125 -16.203125 C 20.035156 -17.398438 19.128906 -18.347656 17.984375 -19.046875 C 16.847656 -19.753906 15.578125 -20.109375 14.171875 -20.109375 C 12.773438 -20.109375 11.503906 -19.753906 10.359375 -19.046875 C 9.222656 -18.347656 8.320312 -17.398438 7.65625 -16.203125 C 6.988281 -15.003906 6.65625 -13.675781 6.65625 -12.21875 Z M 6.65625 -12.21875 "/></g></g></g><g fill="#000000" fill-opacity="1"><g transform="translate(153.870878, 192.903019)"><g><path d="M 17.078125 0 L 11.578125 -8.453125 L 6.828125 0 L 0.828125 0 L 8.859375 -12.640625 L 1.171875 -24.5 L 7.328125 -24.5 L 12.609375 -16.375 L 17.203125 -24.5 L 23.0625 -24.5 L 15.28125 -12.3125 L 23.296875 0 Z M 17.078125 0 "/></g></g></g><g fill="#000000" fill-opacity="1"><g transform="translate(204.618544, 192.903019)"><g><path d="M 7.984375 -24.5 L 7.984375 0 L 3.15625 0 L 3.15625 -24.5 Z M 7.984375 -24.5 "/></g></g></g><g fill="#000000" fill-opacity="1"><g transform="translate(242.391072, 192.903019)"><g><path d="M 28.0625 0 L 16.703125 0 C 15.816406 0.175781 14.960938 0.265625 14.140625 0.265625 C 11.878906 0.265625 9.796875 -0.289062 7.890625 -1.40625 C 5.984375 -2.53125 4.46875 -4.046875 3.34375 -5.953125 C 2.226562 -7.859375 1.671875 -9.945312 1.671875 -12.21875 C 1.671875 -14.4375 2.226562 -16.507812 3.34375 -18.4375 C 4.46875 -20.363281 5.988281 -21.898438 7.90625 -23.046875 C 9.820312 -24.191406 11.898438 -24.765625 14.140625 -24.765625 C 16.378906 -24.765625 18.457031 -24.191406 20.375 -23.046875 C 22.300781 -21.898438 23.832031 -20.363281 24.96875 -18.4375 C 26.113281 -16.507812 26.6875 -14.4375 26.6875 -12.21875 C 26.6875 -10.84375 26.460938 -9.515625 26.015625 -8.234375 C 25.578125 -6.960938 24.957031 -5.789062 24.15625 -4.71875 L 28.0625 -4.71875 Z M 6.65625 -12.21875 C 6.65625 -10.789062 6.992188 -9.484375 7.671875 -8.296875 C 8.347656 -7.109375 9.269531 -6.164062 10.4375 -5.46875 C 11.601562 -4.769531 12.894531 -4.421875 14.3125 -4.421875 C 15.6875 -4.421875 16.9375 -4.769531 18.0625 -5.46875 C 19.195312 -6.164062 20.085938 -7.109375 20.734375 -8.296875 C 21.378906 -9.484375 21.703125 -10.789062 21.703125 -12.21875 C 21.703125 -13.632812 21.367188 -14.9375 20.703125 -16.125 C 20.035156 -17.3125 19.125 -18.25 17.96875 -18.9375 C 16.8125 -19.625 15.546875 -19.96875 14.171875 -19.96875 C 12.773438 -19.96875 11.503906 -19.625 10.359375 -18.9375 C 9.222656 -18.25 8.320312 -17.3125 7.65625 -16.125 C 6.988281 -14.9375 6.65625 -13.632812 6.65625 -12.21875 Z M 6.65625 -12.21875 "/></g></g></g><g fill="#000000" fill-opacity="1"><g transform="translate(298.728043, 192.903019)"><g><path d="M 7.484375 -9.046875 C 7.484375 -8.273438 7.71875 -7.53125 8.1875 -6.8125 C 8.65625 -6.101562 9.273438 -5.523438 10.046875 -5.078125 C 10.828125 -4.640625 11.660156 -4.421875 12.546875 -4.421875 C 13.503906 -4.421875 14.378906 -4.640625 15.171875 -5.078125 C 15.972656 -5.523438 16.597656 -6.101562 17.046875 -6.8125 C 17.503906 -7.53125 17.734375 -8.273438 17.734375 -9.046875 L 17.734375 -24.5 L 22.5 -24.5 L 22.5 -8.953125 C 22.5 -7.203125 22.050781 -5.617188 21.15625 -4.203125 C 20.269531 -2.796875 19.066406 -1.695312 17.546875 -0.90625 C 16.035156 -0.125 14.367188 0.265625 12.546875 0.265625 C 10.722656 0.265625 9.054688 -0.125 7.546875 -0.90625 C 6.046875 -1.695312 4.851562 -2.796875 3.96875 -4.203125 C 3.09375 -5.617188 2.65625 -7.203125 2.65625 -8.953125 L 2.65625 -24.5 L 7.484375 -24.5 Z M 7.484375 -9.046875 "/></g></g></g><g fill="#000000" fill-opacity="1"><g transform="translate(350.507062, 192.903019)"><g><path d="M 19.875 -24.5 L 19.875 -19.828125 L 7.984375 -19.828125 L 7.984375 -14.609375 L 18.5 -14.609375 L 18.5 -9.953125 L 7.984375 -9.953125 L 7.984375 -4.65625 L 20.328125 -4.65625 L 20.328125 0 L 3.15625 0 L 3.15625 -24.5 Z M 19.875 -24.5 "/></g></g></g><g fill="#000000" fill-opacity="1"><g transform="translate(100.553289, 250.495839)"><g><path d="M 6.46875 -2.03125 L 3.03125 -2.03125 L 2.1875 0 L 0.171875 0 L 4.859375 -10.796875 L 4.96875 -10.796875 L 9.65625 0 L 7.28125 0 Z M 5.796875 -3.75 L 4.796875 -6.28125 L 3.75 -3.75 Z M 5.796875 -3.75 "/></g></g></g><g fill="#000000" fill-opacity="1"><g transform="translate(116.022041, 250.495839)"><g><path d="M 6.9375 0 L 4.75 -3.296875 L 3.390625 -3.296875 L 3.390625 0 L 1.34375 0 L 1.34375 -10.390625 L 4.484375 -10.390625 C 5.773438 -10.390625 6.773438 -10.078125 7.484375 -9.453125 C 8.191406 -8.828125 8.546875 -7.972656 8.546875 -6.890625 C 8.546875 -6.242188 8.410156 -5.640625 8.140625 -5.078125 C 7.878906 -4.523438 7.46875 -4.085938 6.90625 -3.765625 L 9.328125 0 Z M 3.390625 -5.28125 L 4.84375 -5.28125 C 5.394531 -5.28125 5.796875 -5.441406 6.046875 -5.765625 C 6.304688 -6.085938 6.4375 -6.4375 6.4375 -6.8125 C 6.4375 -7.1875 6.328125 -7.546875 6.109375 -7.890625 C 5.890625 -8.234375 5.472656 -8.40625 4.859375 -8.40625 L 3.390625 -8.40625 Z M 3.390625 -5.28125 "/></g></g></g><g fill="#000000" fill-opacity="1"><g transform="translate(131.349698, 250.495839)"><g><path d="M 7.640625 -10.390625 L 7.640625 -8.40625 L 5.109375 -8.40625 L 5.109375 0 L 3.0625 0 L 3.0625 -8.40625 L 0.640625 -8.40625 L 0.640625 -10.390625 Z M 7.640625 -10.390625 "/></g></g></g><g fill="#000000" fill-opacity="1"><g transform="translate(145.266425, 250.495839)"><g/></g></g><g fill="#000000" fill-opacity="1"><g transform="translate(155.500616, 250.495839)"><g><path d="M 0.703125 -5.171875 C 0.703125 -6.117188 0.9375 -7 1.40625 -7.8125 C 1.882812 -8.632812 2.53125 -9.285156 3.34375 -9.765625 C 4.164062 -10.253906 5.050781 -10.5 6 -10.5 C 6.945312 -10.5 7.828125 -10.253906 8.640625 -9.765625 C 9.453125 -9.285156 10.097656 -8.632812 10.578125 -7.8125 C 11.066406 -7 11.3125 -6.117188 11.3125 -5.171875 C 11.3125 -4.210938 11.066406 -3.328125 10.578125 -2.515625 C 10.097656 -1.710938 9.453125 -1.070312 8.640625 -0.59375 C 7.828125 -0.125 6.945312 0.109375 6 0.109375 C 5.039062 0.109375 4.15625 -0.125 3.34375 -0.59375 C 2.53125 -1.070312 1.882812 -1.710938 1.40625 -2.515625 C 0.9375 -3.328125 0.703125 -4.210938 0.703125 -5.171875 Z M 2.828125 -5.171875 C 2.828125 -4.578125 2.96875 -4.023438 3.25 -3.515625 C 3.539062 -3.003906 3.929688 -2.597656 4.421875 -2.296875 C 4.910156 -2.003906 5.457031 -1.859375 6.0625 -1.859375 C 6.644531 -1.859375 7.175781 -2.003906 7.65625 -2.296875 C 8.132812 -2.597656 8.507812 -3 8.78125 -3.5 C 9.0625 -4.007812 9.203125 -4.566406 9.203125 -5.171875 C 9.203125 -5.796875 9.0625 -6.363281 8.78125 -6.875 C 8.5 -7.382812 8.113281 -7.785156 7.625 -8.078125 C 7.144531 -8.367188 6.609375 -8.515625 6.015625 -8.515625 C 5.421875 -8.515625 4.878906 -8.367188 4.390625 -8.078125 C 3.910156 -7.785156 3.53125 -7.382812 3.25 -6.875 C 2.96875 -6.363281 2.828125 -5.796875 2.828125 -5.171875 Z M 2.828125 -5.171875 "/></g></g></g><g fill="#000000" fill-opacity="1"><g transform="translate(173.170418, 250.495839)"><g><path d="M 7.828125 -10.390625 L 7.828125 -8.40625 L 3.390625 -8.40625 L 3.390625 -6.046875 L 7.234375 -6.046875 L 7.234375 -4.078125 L 3.390625 -4.078125 L 3.390625 0 L 1.34375 0 L 1.34375 -10.390625 Z M 7.828125 -10.390625 "/></g></g></g><g fill="#000000" fill-opacity="1"><g transform="translate(187.284667, 250.495839)"><g/></g></g><g fill="#000000" fill-opacity="1"><g transform="translate(197.518854, 250.495839)"><g><path d="M 6.9375 0 L 4.75 -3.296875 L 3.390625 -3.296875 L 3.390625 0 L 1.34375 0 L 1.34375 -10.390625 L 4.484375 -10.390625 C 5.773438 -10.390625 6.773438 -10.078125 7.484375 -9.453125 C 8.191406 -8.828125 8.546875 -7.972656 8.546875 -6.890625 C 8.546875 -6.242188 8.410156 -5.640625 8.140625 -5.078125 C 7.878906 -4.523438 7.46875 -4.085938 6.90625 -3.765625 L 9.328125 0 Z M 3.390625 -5.28125 L 4.84375 -5.28125 C 5.394531 -5.28125 5.796875 -5.441406 6.046875 -5.765625 C 6.304688 -6.085938 6.4375 -6.4375 6.4375 -6.8125 C 6.4375 -7.1875 6.328125 -7.546875 6.109375 -7.890625 C 5.890625 -8.234375 5.472656 -8.40625 4.859375 -8.40625 L 3.390625 -8.40625 Z M 3.390625 -5.28125 "/></g></g></g><g fill="#000000" fill-opacity="1"><g transform="translate(212.846509, 250.495839)"><g><path d="M 8.421875 -10.390625 L 8.421875 -8.40625 L 3.390625 -8.40625 L 3.390625 -6.1875 L 7.84375 -6.1875 L 7.84375 -4.21875 L 3.390625 -4.21875 L 3.390625 -1.96875 L 8.625 -1.96875 L 8.625 0 L 1.34375 0 L 1.34375 -10.390625 Z M 8.421875 -10.390625 "/></g></g></g><g fill="#000000" fill-opacity="1"><g transform="translate(227.891975, 250.495839)"><g><path d="M 6.890625 -7.875 C 5.984375 -8.375 5.195312 -8.625 4.53125 -8.625 C 4.082031 -8.625 3.734375 -8.53125 3.484375 -8.34375 C 3.234375 -8.164062 3.109375 -7.898438 3.109375 -7.546875 C 3.109375 -7.210938 3.285156 -6.921875 3.640625 -6.671875 C 4.003906 -6.429688 4.488281 -6.195312 5.09375 -5.96875 C 5.582031 -5.789062 6 -5.585938 6.34375 -5.359375 C 6.695312 -5.128906 6.988281 -4.8125 7.21875 -4.40625 C 7.445312 -4 7.5625 -3.484375 7.5625 -2.859375 C 7.5625 -2.328125 7.421875 -1.832031 7.140625 -1.375 C 6.867188 -0.914062 6.460938 -0.550781 5.921875 -0.28125 C 5.390625 -0.0195312 4.75 0.109375 4 0.109375 C 3.382812 0.109375 2.769531 0.0195312 2.15625 -0.15625 C 1.539062 -0.34375 0.972656 -0.625 0.453125 -1 L 1.359375 -2.59375 C 1.710938 -2.332031 2.117188 -2.113281 2.578125 -1.9375 C 3.035156 -1.769531 3.453125 -1.6875 3.828125 -1.6875 C 4.253906 -1.6875 4.628906 -1.78125 4.953125 -1.96875 C 5.273438 -2.15625 5.4375 -2.453125 5.4375 -2.859375 C 5.4375 -3.398438 4.929688 -3.867188 3.921875 -4.265625 C 3.328125 -4.492188 2.832031 -4.71875 2.4375 -4.9375 C 2.039062 -5.15625 1.695312 -5.460938 1.40625 -5.859375 C 1.125 -6.265625 0.984375 -6.773438 0.984375 -7.390625 C 0.984375 -8.285156 1.273438 -9.003906 1.859375 -9.546875 C 2.453125 -10.097656 3.238281 -10.394531 4.21875 -10.4375 C 4.988281 -10.4375 5.628906 -10.347656 6.140625 -10.171875 C 6.660156 -10.003906 7.164062 -9.757812 7.65625 -9.4375 Z M 6.890625 -7.875 "/></g></g></g><g fill="#000000" fill-opacity="1"><g transform="translate(241.766367, 250.495839)"><g><path d="M 3.390625 -10.390625 L 3.390625 0 L 1.34375 0 L 1.34375 -10.390625 Z M 3.390625 -10.390625 "/></g></g></g><g fill="#000000" fill-opacity="1"><g transform="translate(252.141649, 250.495839)"><g><path d="M 10.6875 -10.390625 L 10.6875 0.421875 L 10.640625 0.421875 L 3.375 -6.140625 L 3.421875 0 L 1.34375 0 L 1.34375 -10.796875 L 1.421875 -10.796875 L 8.671875 -4.140625 L 8.640625 -10.390625 Z M 10.6875 -10.390625 "/></g></g></g><g fill="#000000" fill-opacity="1"><g transform="translate(269.830625, 250.495839)"><g/></g></g></svg>