<svg xmlns="http://www.w3.org/2000/svg" xmlns:xlink="http://www.w3.org/1999/xlink" width="500" zoomAndPan="magnify" viewBox="0 0 375 374.999991" height="500" preserveAspectRatio="xMidYMid meet" version="1.0"><defs><g/><clipPath id="06ed0bae5a"><path d="M 61.480469 76 L 310.480469 76 L 310.480469 333 L 61.480469 333 Z M 61.480469 76 " clip-rule="nonzero"/></clipPath></defs><g clip-path="url(#06ed0bae5a)"><path fill="#ffffff" d="M 154.539062 80.363281 C 188.089844 71.925781 221.976562 77.585938 249.84375 93.675781 C 278.253906 110.074219 300.402344 137.3125 309.5625 171.5 C 309.765625 172.253906 309.957031 173.011719 310.144531 173.765625 L 308.1875 174.449219 C 307.988281 173.644531 307.78125 172.839844 307.566406 172.035156 C 298.554688 138.394531 276.757812 111.597656 248.8125 95.457031 C 221.011719 79.40625 187.117188 73.910156 153.652344 82.722656 C 153.964844 81.945312 154.261719 81.15625 154.539062 80.363281 Z M 63.441406 235.335938 C 63.605469 235.992188 63.773438 236.648438 63.949219 237.308594 C 72.960938 270.945312 94.757812 297.746094 122.703125 313.882812 C 150.636719 330.011719 184.722656 335.484375 218.34375 326.492188 C 218.019531 327.277344 217.710938 328.066406 217.421875 328.867188 C 183.726562 337.46875 149.660156 331.828125 121.671875 315.667969 C 93.265625 299.269531 71.113281 272.03125 61.957031 237.84375 C 61.792969 237.234375 61.632812 236.625 61.480469 236.019531 Z M 63.441406 235.335938 " fill-opacity="1" fill-rule="evenodd"/></g><g fill="#ffffff" fill-opacity="1"><g transform="translate(42.838603, 208.899977)"><g><path d="M 15.515625 -19.140625 L 15.515625 -15.5 L 6.234375 -15.5 L 6.234375 -11.40625 L 14.453125 -11.40625 L 14.453125 -7.78125 L 6.234375 -7.78125 L 6.234375 -3.640625 L 15.890625 -3.640625 L 15.890625 0 L 2.46875 0 L 2.46875 -19.140625 Z M 15.515625 -19.140625 "/></g></g></g><g fill="#ffffff" fill-opacity="1"><g transform="translate(80.949434, 208.899977)"><g><path d="M 8.265625 -19.140625 C 10.609375 -19.140625 12.421875 -18.5625 13.703125 -17.40625 C 14.984375 -16.25 15.625 -14.675781 15.625 -12.6875 C 15.625 -11.539062 15.398438 -10.46875 14.953125 -9.46875 C 14.515625 -8.476562 13.796875 -7.660156 12.796875 -7.015625 C 11.804688 -6.378906 10.519531 -6.0625 8.9375 -6.0625 L 6.234375 -6.0625 L 6.234375 0 L 2.46875 0 L 2.46875 -19.140625 Z M 8.921875 -9.71875 C 9.628906 -9.71875 10.195312 -9.878906 10.625 -10.203125 C 11.0625 -10.523438 11.375 -10.898438 11.5625 -11.328125 C 11.757812 -11.765625 11.859375 -12.179688 11.859375 -12.578125 C 11.859375 -13.253906 11.65625 -13.910156 11.25 -14.546875 C 10.851562 -15.179688 10.082031 -15.5 8.9375 -15.5 L 6.234375 -15.5 L 6.234375 -9.71875 Z M 8.921875 -9.71875 "/></g></g></g><g fill="#ffffff" fill-opacity="1"><g transform="translate(118.280499, 208.899977)"><g><path d="M 1.296875 -9.546875 C 1.296875 -11.273438 1.734375 -12.894531 2.609375 -14.40625 C 3.484375 -15.914062 4.671875 -17.113281 6.171875 -18 C 7.671875 -18.894531 9.296875 -19.34375 11.046875 -19.34375 C 12.796875 -19.34375 14.421875 -18.894531 15.921875 -18 C 17.421875 -17.113281 18.617188 -15.914062 19.515625 -14.40625 C 20.410156 -12.894531 20.859375 -11.273438 20.859375 -9.546875 C 20.859375 -7.773438 20.410156 -6.144531 19.515625 -4.65625 C 18.617188 -3.164062 17.421875 -1.984375 15.921875 -1.109375 C 14.421875 -0.234375 12.796875 0.203125 11.046875 0.203125 C 9.273438 0.203125 7.644531 -0.234375 6.15625 -1.109375 C 4.664062 -1.984375 3.484375 -3.164062 2.609375 -4.65625 C 1.734375 -6.144531 1.296875 -7.773438 1.296875 -9.546875 Z M 5.203125 -9.546875 C 5.203125 -8.429688 5.460938 -7.40625 5.984375 -6.46875 C 6.515625 -5.53125 7.234375 -4.789062 8.140625 -4.25 C 9.054688 -3.707031 10.070312 -3.4375 11.1875 -3.4375 C 12.257812 -3.4375 13.234375 -3.707031 14.109375 -4.25 C 14.992188 -4.789062 15.6875 -5.523438 16.1875 -6.453125 C 16.695312 -7.390625 16.953125 -8.421875 16.953125 -9.546875 C 16.953125 -10.691406 16.691406 -11.726562 16.171875 -12.65625 C 15.648438 -13.59375 14.941406 -14.332031 14.046875 -14.875 C 13.160156 -15.425781 12.171875 -15.703125 11.078125 -15.703125 C 9.984375 -15.703125 8.988281 -15.425781 8.09375 -14.875 C 7.207031 -14.332031 6.503906 -13.59375 5.984375 -12.65625 C 5.460938 -11.726562 5.203125 -10.691406 5.203125 -9.546875 Z M 5.203125 -9.546875 "/></g></g></g><g fill="#ffffff" fill-opacity="1"><g transform="translate(161.225893, 208.899977)"><g><path d="M 13.34375 0 L 9.046875 -6.609375 L 5.328125 0 L 0.65625 0 L 6.921875 -9.875 L 0.90625 -19.140625 L 5.71875 -19.140625 L 9.859375 -12.796875 L 13.4375 -19.140625 L 18.015625 -19.140625 L 11.9375 -9.625 L 18.203125 0 Z M 13.34375 0 "/></g></g></g><g fill="#ffffff" fill-opacity="1"><g transform="translate(200.870261, 208.899977)"><g><path d="M 6.234375 -19.140625 L 6.234375 0 L 2.46875 0 L 2.46875 -19.140625 Z M 6.234375 -19.140625 "/></g></g></g><g fill="#ffffff" fill-opacity="1"><g transform="translate(230.377683, 208.899977)"><g><path d="M 21.921875 0 L 13.046875 0 C 12.359375 0.132812 11.691406 0.203125 11.046875 0.203125 C 9.273438 0.203125 7.644531 -0.234375 6.15625 -1.109375 C 4.664062 -1.984375 3.484375 -3.164062 2.609375 -4.65625 C 1.734375 -6.144531 1.296875 -7.773438 1.296875 -9.546875 C 1.296875 -11.273438 1.734375 -12.894531 2.609375 -14.40625 C 3.484375 -15.914062 4.671875 -17.113281 6.171875 -18 C 7.671875 -18.894531 9.296875 -19.34375 11.046875 -19.34375 C 12.796875 -19.34375 14.421875 -18.894531 15.921875 -18 C 17.421875 -17.113281 18.617188 -15.914062 19.515625 -14.40625 C 20.410156 -12.894531 20.859375 -11.273438 20.859375 -9.546875 C 20.859375 -8.472656 20.679688 -7.4375 20.328125 -6.4375 C 19.984375 -5.4375 19.5 -4.519531 18.875 -3.6875 L 21.921875 -3.6875 Z M 5.203125 -9.546875 C 5.203125 -8.429688 5.460938 -7.410156 5.984375 -6.484375 C 6.515625 -5.554688 7.234375 -4.816406 8.140625 -4.265625 C 9.054688 -3.722656 10.070312 -3.453125 11.1875 -3.453125 C 12.257812 -3.453125 13.234375 -3.722656 14.109375 -4.265625 C 14.992188 -4.816406 15.6875 -5.554688 16.1875 -6.484375 C 16.695312 -7.410156 16.953125 -8.429688 16.953125 -9.546875 C 16.953125 -10.648438 16.691406 -11.664062 16.171875 -12.59375 C 15.648438 -13.519531 14.9375 -14.25 14.03125 -14.78125 C 13.132812 -15.320312 12.148438 -15.59375 11.078125 -15.59375 C 9.984375 -15.59375 8.988281 -15.320312 8.09375 -14.78125 C 7.207031 -14.25 6.503906 -13.519531 5.984375 -12.59375 C 5.460938 -11.664062 5.203125 -10.648438 5.203125 -9.546875 Z M 5.203125 -9.546875 "/></g></g></g><g fill="#ffffff" fill-opacity="1"><g transform="translate(274.38875, 208.899977)"><g><path d="M 5.84375 -7.078125 C 5.84375 -6.460938 6.023438 -5.878906 6.390625 -5.328125 C 6.753906 -4.773438 7.238281 -4.320312 7.84375 -3.96875 C 8.457031 -3.625 9.109375 -3.453125 9.796875 -3.453125 C 10.546875 -3.453125 11.234375 -3.625 11.859375 -3.96875 C 12.484375 -4.320312 12.972656 -4.773438 13.328125 -5.328125 C 13.679688 -5.878906 13.859375 -6.460938 13.859375 -7.078125 L 13.859375 -19.140625 L 17.578125 -19.140625 L 17.578125 -7 C 17.578125 -5.625 17.226562 -4.382812 16.53125 -3.28125 C 15.84375 -2.1875 14.90625 -1.332031 13.71875 -0.71875 C 12.53125 -0.101562 11.222656 0.203125 9.796875 0.203125 C 8.378906 0.203125 7.082031 -0.101562 5.90625 -0.71875 C 4.726562 -1.332031 3.796875 -2.1875 3.109375 -3.28125 C 2.421875 -4.382812 2.078125 -5.625 2.078125 -7 L 2.078125 -19.140625 L 5.84375 -19.140625 Z M 5.84375 -7.078125 "/></g></g></g><g fill="#ffffff" fill-opacity="1"><g transform="translate(314.838874, 208.899977)"><g><path d="M 15.515625 -19.140625 L 15.515625 -15.5 L 6.234375 -15.5 L 6.234375 -11.40625 L 14.453125 -11.40625 L 14.453125 -7.78125 L 6.234375 -7.78125 L 6.234375 -3.640625 L 15.890625 -3.640625 L 15.890625 0 L 2.46875 0 L 2.46875 -19.140625 Z M 15.515625 -19.140625 "/></g></g></g><g fill="#ffffff" fill-opacity="1"><g transform="translate(119.599772, 253.699846)"><g><path d="M 5.0625 -1.59375 L 2.375 -1.59375 L 1.703125 0 L 0.125 0 L 3.796875 -8.4375 L 3.890625 -8.4375 L 7.546875 0 L 5.6875 0 Z M 4.53125 -2.9375 L 3.75 -4.90625 L 2.9375 -2.9375 Z M 4.53125 -2.9375 "/></g></g></g><g fill="#ffffff" fill-opacity="1"><g transform="translate(131.679161, 253.699846)"><g><path d="M 5.421875 0 L 3.71875 -2.578125 L 2.640625 -2.578125 L 2.640625 0 L 1.046875 0 L 1.046875 -8.125 L 3.515625 -8.125 C 4.515625 -8.125 5.289062 -7.878906 5.84375 -7.390625 C 6.40625 -6.898438 6.6875 -6.234375 6.6875 -5.390625 C 6.6875 -4.890625 6.582031 -4.421875 6.375 -3.984375 C 6.164062 -3.546875 5.84375 -3.203125 5.40625 -2.953125 L 7.296875 0 Z M 2.640625 -4.125 L 3.78125 -4.125 C 4.21875 -4.125 4.535156 -4.25 4.734375 -4.5 C 4.929688 -4.757812 5.03125 -5.035156 5.03125 -5.328125 C 5.03125 -5.617188 4.941406 -5.898438 4.765625 -6.171875 C 4.597656 -6.441406 4.273438 -6.578125 3.796875 -6.578125 L 2.640625 -6.578125 Z M 2.640625 -4.125 "/></g></g></g><g fill="#ffffff" fill-opacity="1"><g transform="translate(143.64839, 253.699846)"><g><path d="M 5.96875 -8.125 L 5.96875 -6.578125 L 4 -6.578125 L 4 0 L 2.390625 0 L 2.390625 -6.578125 L 0.5 -6.578125 L 0.5 -8.125 Z M 5.96875 -8.125 "/></g></g></g><g fill="#ffffff" fill-opacity="1"><g transform="translate(154.516057, 253.699846)"><g/></g></g><g fill="#ffffff" fill-opacity="1"><g transform="translate(162.508636, 253.699846)"><g><path d="M 0.546875 -4.046875 C 0.546875 -4.785156 0.734375 -5.472656 1.109375 -6.109375 C 1.484375 -6.753906 1.988281 -7.265625 2.625 -7.640625 C 3.257812 -8.015625 3.945312 -8.203125 4.6875 -8.203125 C 5.425781 -8.203125 6.113281 -8.015625 6.75 -7.640625 C 7.382812 -7.265625 7.890625 -6.753906 8.265625 -6.109375 C 8.648438 -5.472656 8.84375 -4.785156 8.84375 -4.046875 C 8.84375 -3.296875 8.648438 -2.601562 8.265625 -1.96875 C 7.890625 -1.34375 7.382812 -0.84375 6.75 -0.46875 C 6.113281 -0.09375 5.425781 0.09375 4.6875 0.09375 C 3.9375 0.09375 3.242188 -0.09375 2.609375 -0.46875 C 1.984375 -0.84375 1.484375 -1.34375 1.109375 -1.96875 C 0.734375 -2.601562 0.546875 -3.296875 0.546875 -4.046875 Z M 2.203125 -4.046875 C 2.203125 -3.578125 2.3125 -3.144531 2.53125 -2.75 C 2.757812 -2.351562 3.066406 -2.035156 3.453125 -1.796875 C 3.835938 -1.566406 4.269531 -1.453125 4.75 -1.453125 C 5.195312 -1.453125 5.609375 -1.566406 5.984375 -1.796875 C 6.359375 -2.035156 6.648438 -2.347656 6.859375 -2.734375 C 7.078125 -3.128906 7.1875 -3.566406 7.1875 -4.046875 C 7.1875 -4.535156 7.078125 -4.976562 6.859375 -5.375 C 6.640625 -5.769531 6.335938 -6.082031 5.953125 -6.3125 C 5.578125 -6.539062 5.160156 -6.65625 4.703125 -6.65625 C 4.234375 -6.65625 3.8125 -6.539062 3.4375 -6.3125 C 3.0625 -6.082031 2.757812 -5.769531 2.53125 -5.375 C 2.3125 -4.976562 2.203125 -4.535156 2.203125 -4.046875 Z M 2.203125 -4.046875 "/></g></g></g><g fill="#ffffff" fill-opacity="1"><g transform="translate(176.306456, 253.699846)"><g><path d="M 6.125 -8.125 L 6.125 -6.578125 L 2.640625 -6.578125 L 2.640625 -4.734375 L 5.65625 -4.734375 L 5.65625 -3.1875 L 2.640625 -3.1875 L 2.640625 0 L 1.046875 0 L 1.046875 -8.125 Z M 6.125 -8.125 "/></g></g></g><g fill="#ffffff" fill-opacity="1"><g transform="translate(187.32834, 253.699846)"><g/></g></g><g fill="#ffffff" fill-opacity="1"><g transform="translate(195.320916, 253.699846)"><g><path d="M 5.421875 0 L 3.71875 -2.578125 L 2.640625 -2.578125 L 2.640625 0 L 1.046875 0 L 1.046875 -8.125 L 3.515625 -8.125 C 4.515625 -8.125 5.289062 -7.878906 5.84375 -7.390625 C 6.40625 -6.898438 6.6875 -6.234375 6.6875 -5.390625 C 6.6875 -4.890625 6.582031 -4.421875 6.375 -3.984375 C 6.164062 -3.546875 5.84375 -3.203125 5.40625 -2.953125 L 7.296875 0 Z M 2.640625 -4.125 L 3.78125 -4.125 C 4.21875 -4.125 4.535156 -4.25 4.734375 -4.5 C 4.929688 -4.757812 5.03125 -5.035156 5.03125 -5.328125 C 5.03125 -5.617188 4.941406 -5.898438 4.765625 -6.171875 C 4.597656 -6.441406 4.273438 -6.578125 3.796875 -6.578125 L 2.640625 -6.578125 Z M 2.640625 -4.125 "/></g></g></g><g fill="#ffffff" fill-opacity="1"><g transform="translate(207.290142, 253.699846)"><g><path d="M 6.578125 -8.125 L 6.578125 -6.578125 L 2.640625 -6.578125 L 2.640625 -4.84375 L 6.140625 -4.84375 L 6.140625 -3.296875 L 2.640625 -3.296875 L 2.640625 -1.546875 L 6.734375 -1.546875 L 6.734375 0 L 1.046875 0 L 1.046875 -8.125 Z M 6.578125 -8.125 "/></g></g></g><g fill="#ffffff" fill-opacity="1"><g transform="translate(219.039058, 253.699846)"><g><path d="M 5.390625 -6.15625 C 4.679688 -6.539062 4.066406 -6.734375 3.546875 -6.734375 C 3.191406 -6.734375 2.914062 -6.664062 2.71875 -6.53125 C 2.519531 -6.394531 2.421875 -6.1875 2.421875 -5.90625 C 2.421875 -5.644531 2.5625 -5.414062 2.84375 -5.21875 C 3.132812 -5.03125 3.515625 -4.847656 3.984375 -4.671875 C 4.367188 -4.523438 4.695312 -4.363281 4.96875 -4.1875 C 5.238281 -4.007812 5.460938 -3.757812 5.640625 -3.4375 C 5.816406 -3.125 5.90625 -2.722656 5.90625 -2.234375 C 5.90625 -1.816406 5.796875 -1.429688 5.578125 -1.078125 C 5.367188 -0.722656 5.050781 -0.4375 4.625 -0.21875 C 4.207031 -0.0078125 3.710938 0.09375 3.140625 0.09375 C 2.648438 0.09375 2.164062 0.0195312 1.6875 -0.125 C 1.207031 -0.269531 0.765625 -0.488281 0.359375 -0.78125 L 1.0625 -2.03125 C 1.34375 -1.820312 1.660156 -1.648438 2.015625 -1.515625 C 2.378906 -1.390625 2.703125 -1.328125 2.984375 -1.328125 C 3.328125 -1.328125 3.625 -1.394531 3.875 -1.53125 C 4.125 -1.675781 4.25 -1.910156 4.25 -2.234375 C 4.25 -2.660156 3.851562 -3.023438 3.0625 -3.328125 C 2.601562 -3.515625 2.21875 -3.691406 1.90625 -3.859375 C 1.59375 -4.023438 1.320312 -4.265625 1.09375 -4.578125 C 0.875 -4.898438 0.765625 -5.300781 0.765625 -5.78125 C 0.765625 -6.476562 0.992188 -7.039062 1.453125 -7.46875 C 1.921875 -7.894531 2.535156 -8.125 3.296875 -8.15625 C 3.898438 -8.15625 4.40625 -8.085938 4.8125 -7.953125 C 5.21875 -7.816406 5.609375 -7.625 5.984375 -7.375 Z M 5.390625 -6.15625 "/></g></g></g><g fill="#ffffff" fill-opacity="1"><g transform="translate(229.873671, 253.699846)"><g><path d="M 2.640625 -8.125 L 2.640625 0 L 1.046875 0 L 1.046875 -8.125 Z M 2.640625 -8.125 "/></g></g></g><g fill="#ffffff" fill-opacity="1"><g transform="translate(237.976397, 253.699846)"><g><path d="M 8.359375 -8.125 L 8.359375 0.328125 L 8.3125 0.328125 L 2.640625 -4.796875 L 2.671875 0 L 1.046875 0 L 1.046875 -8.4375 L 1.109375 -8.4375 L 6.78125 -3.234375 L 6.75 -8.125 Z M 8.359375 -8.125 "/></g></g></g><g fill="#ffffff" fill-opacity="1"><g transform="translate(251.787263, 253.699846)"><g/></g></g></svg>